<mxfile host="app.diagrams.net" modified="2020-11-08T04:34:34.891Z" agent="5.0 (Macintosh; Intel Mac OS X 10_15_1) AppleWebKit/537.36 (KHTML, like Gecko) Chrome/86.0.4240.183 Safari/537.36" etag="AxzXypbukiC_9i1JriJ7" version="13.9.2" type="github">
  <diagram id="MlJI2Lvfq05DiYabIVUM" name="Page-1">
    <mxGraphModel dx="1636" dy="546" grid="1" gridSize="10" guides="1" tooltips="1" connect="1" arrows="1" fold="1" page="1" pageScale="1" pageWidth="850" pageHeight="1100" math="0" shadow="0">
      <root>
        <mxCell id="0" />
        <mxCell id="1" parent="0" />
        <mxCell id="v66dLdxhp5NwMRdZ7sNX-5" value="User" style="swimlane;fontStyle=1;align=center;verticalAlign=top;childLayout=stackLayout;horizontal=1;startSize=26;horizontalStack=0;resizeParent=1;resizeParentMax=0;resizeLast=0;collapsible=1;marginBottom=0;" vertex="1" parent="1">
          <mxGeometry x="320" y="110" width="160" height="114" as="geometry" />
        </mxCell>
        <mxCell id="v66dLdxhp5NwMRdZ7sNX-6" value="-userID : string&#xa;-password : string" style="text;strokeColor=none;fillColor=none;align=left;verticalAlign=top;spacingLeft=4;spacingRight=4;overflow=hidden;rotatable=0;points=[[0,0.5],[1,0.5]];portConstraint=eastwest;" vertex="1" parent="v66dLdxhp5NwMRdZ7sNX-5">
          <mxGeometry y="26" width="160" height="54" as="geometry" />
        </mxCell>
        <mxCell id="v66dLdxhp5NwMRdZ7sNX-7" value="" style="line;strokeWidth=1;fillColor=none;align=left;verticalAlign=middle;spacingTop=-1;spacingLeft=3;spacingRight=3;rotatable=0;labelPosition=right;points=[];portConstraint=eastwest;" vertex="1" parent="v66dLdxhp5NwMRdZ7sNX-5">
          <mxGeometry y="80" width="160" height="8" as="geometry" />
        </mxCell>
        <mxCell id="v66dLdxhp5NwMRdZ7sNX-8" value="+login()" style="text;strokeColor=none;fillColor=none;align=left;verticalAlign=top;spacingLeft=4;spacingRight=4;overflow=hidden;rotatable=0;points=[[0,0.5],[1,0.5]];portConstraint=eastwest;" vertex="1" parent="v66dLdxhp5NwMRdZ7sNX-5">
          <mxGeometry y="88" width="160" height="26" as="geometry" />
        </mxCell>
        <mxCell id="v66dLdxhp5NwMRdZ7sNX-9" value="Pasien" style="swimlane;fontStyle=1;align=center;verticalAlign=top;childLayout=stackLayout;horizontal=1;startSize=26;horizontalStack=0;resizeParent=1;resizeParentMax=0;resizeLast=0;collapsible=1;marginBottom=0;" vertex="1" parent="1">
          <mxGeometry x="140" y="270" width="160" height="170" as="geometry" />
        </mxCell>
        <mxCell id="v66dLdxhp5NwMRdZ7sNX-10" value="-namaPasien : string&#xa;-NIK : string&#xa;-noTelp : int" style="text;strokeColor=none;fillColor=none;align=left;verticalAlign=top;spacingLeft=4;spacingRight=4;overflow=hidden;rotatable=0;points=[[0,0.5],[1,0.5]];portConstraint=eastwest;" vertex="1" parent="v66dLdxhp5NwMRdZ7sNX-9">
          <mxGeometry y="26" width="160" height="64" as="geometry" />
        </mxCell>
        <mxCell id="v66dLdxhp5NwMRdZ7sNX-11" value="" style="line;strokeWidth=1;fillColor=none;align=left;verticalAlign=middle;spacingTop=-1;spacingLeft=3;spacingRight=3;rotatable=0;labelPosition=right;points=[];portConstraint=eastwest;" vertex="1" parent="v66dLdxhp5NwMRdZ7sNX-9">
          <mxGeometry y="90" width="160" height="8" as="geometry" />
        </mxCell>
        <mxCell id="v66dLdxhp5NwMRdZ7sNX-12" value="+daftar()&#xa;+login()&#xa;+penjadwalanObat()&#xa;+permintaanResep()&#xa;" style="text;strokeColor=none;fillColor=none;align=left;verticalAlign=top;spacingLeft=4;spacingRight=4;overflow=hidden;rotatable=0;points=[[0,0.5],[1,0.5]];portConstraint=eastwest;" vertex="1" parent="v66dLdxhp5NwMRdZ7sNX-9">
          <mxGeometry y="98" width="160" height="72" as="geometry" />
        </mxCell>
        <mxCell id="v66dLdxhp5NwMRdZ7sNX-13" value="Dokter" style="swimlane;fontStyle=1;align=center;verticalAlign=top;childLayout=stackLayout;horizontal=1;startSize=26;horizontalStack=0;resizeParent=1;resizeParentMax=0;resizeLast=0;collapsible=1;marginBottom=0;" vertex="1" parent="1">
          <mxGeometry x="450" y="270" width="160" height="170" as="geometry" />
        </mxCell>
        <mxCell id="v66dLdxhp5NwMRdZ7sNX-14" value="-namaDokter : string&#xa;-noSIP : string&#xa;-noTelp : int&#xa;" style="text;strokeColor=none;fillColor=none;align=left;verticalAlign=top;spacingLeft=4;spacingRight=4;overflow=hidden;rotatable=0;points=[[0,0.5],[1,0.5]];portConstraint=eastwest;" vertex="1" parent="v66dLdxhp5NwMRdZ7sNX-13">
          <mxGeometry y="26" width="160" height="64" as="geometry" />
        </mxCell>
        <mxCell id="v66dLdxhp5NwMRdZ7sNX-15" value="" style="line;strokeWidth=1;fillColor=none;align=left;verticalAlign=middle;spacingTop=-1;spacingLeft=3;spacingRight=3;rotatable=0;labelPosition=right;points=[];portConstraint=eastwest;" vertex="1" parent="v66dLdxhp5NwMRdZ7sNX-13">
          <mxGeometry y="90" width="160" height="8" as="geometry" />
        </mxCell>
        <mxCell id="v66dLdxhp5NwMRdZ7sNX-16" value="+daftar()&#xa;+login()&#xa;+pemberianResep()" style="text;strokeColor=none;fillColor=none;align=left;verticalAlign=top;spacingLeft=4;spacingRight=4;overflow=hidden;rotatable=0;points=[[0,0.5],[1,0.5]];portConstraint=eastwest;" vertex="1" parent="v66dLdxhp5NwMRdZ7sNX-13">
          <mxGeometry y="98" width="160" height="72" as="geometry" />
        </mxCell>
        <mxCell id="v66dLdxhp5NwMRdZ7sNX-17" value="" style="triangle;whiteSpace=wrap;html=1;" vertex="1" parent="1">
          <mxGeometry x="300" y="160" width="20" height="26.67" as="geometry" />
        </mxCell>
        <mxCell id="v66dLdxhp5NwMRdZ7sNX-18" value="" style="endArrow=none;html=1;exitX=0.5;exitY=0;exitDx=0;exitDy=0;entryX=0;entryY=0.5;entryDx=0;entryDy=0;" edge="1" parent="1" source="v66dLdxhp5NwMRdZ7sNX-9" target="v66dLdxhp5NwMRdZ7sNX-17">
          <mxGeometry width="50" height="50" relative="1" as="geometry">
            <mxPoint x="310" y="220" as="sourcePoint" />
            <mxPoint x="360" y="170" as="targetPoint" />
            <Array as="points">
              <mxPoint x="220" y="173" />
            </Array>
          </mxGeometry>
        </mxCell>
        <mxCell id="v66dLdxhp5NwMRdZ7sNX-19" value="" style="triangle;whiteSpace=wrap;html=1;rotation=-180;" vertex="1" parent="1">
          <mxGeometry x="480" y="160" width="20" height="26.67" as="geometry" />
        </mxCell>
        <mxCell id="v66dLdxhp5NwMRdZ7sNX-21" value="" style="endArrow=none;html=1;entryX=0;entryY=0.5;entryDx=0;entryDy=0;exitX=0.625;exitY=0.006;exitDx=0;exitDy=0;exitPerimeter=0;" edge="1" parent="1" source="v66dLdxhp5NwMRdZ7sNX-13" target="v66dLdxhp5NwMRdZ7sNX-19">
          <mxGeometry width="50" height="50" relative="1" as="geometry">
            <mxPoint x="550" y="260" as="sourcePoint" />
            <mxPoint x="500" y="170" as="targetPoint" />
            <Array as="points">
              <mxPoint x="550" y="173" />
            </Array>
          </mxGeometry>
        </mxCell>
        <mxCell id="v66dLdxhp5NwMRdZ7sNX-22" value="" style="endArrow=diamondThin;endFill=1;endSize=24;html=1;entryX=-0.01;entryY=0.831;entryDx=0;entryDy=0;entryPerimeter=0;exitX=0.995;exitY=0.607;exitDx=0;exitDy=0;exitPerimeter=0;" edge="1" parent="1" source="v66dLdxhp5NwMRdZ7sNX-24" target="v66dLdxhp5NwMRdZ7sNX-10">
          <mxGeometry width="160" relative="1" as="geometry">
            <mxPoint x="209" y="510" as="sourcePoint" />
            <mxPoint x="209" y="443" as="targetPoint" />
          </mxGeometry>
        </mxCell>
        <mxCell id="v66dLdxhp5NwMRdZ7sNX-23" value="Obat" style="swimlane;fontStyle=1;align=center;verticalAlign=top;childLayout=stackLayout;horizontal=1;startSize=26;horizontalStack=0;resizeParent=1;resizeParentMax=0;resizeLast=0;collapsible=1;marginBottom=0;" vertex="1" parent="1">
          <mxGeometry x="-110" y="286" width="160" height="138" as="geometry" />
        </mxCell>
        <mxCell id="v66dLdxhp5NwMRdZ7sNX-24" value="+tanggalAwal : int&#xa;+bulanAwal : int&#xa;+namaObat : string&#xa;+quantity : int" style="text;strokeColor=none;fillColor=none;align=left;verticalAlign=top;spacingLeft=4;spacingRight=4;overflow=hidden;rotatable=0;points=[[0,0.5],[1,0.5]];portConstraint=eastwest;" vertex="1" parent="v66dLdxhp5NwMRdZ7sNX-23">
          <mxGeometry y="26" width="160" height="64" as="geometry" />
        </mxCell>
        <mxCell id="v66dLdxhp5NwMRdZ7sNX-25" value="" style="line;strokeWidth=1;fillColor=none;align=left;verticalAlign=middle;spacingTop=-1;spacingLeft=3;spacingRight=3;rotatable=0;labelPosition=right;points=[];portConstraint=eastwest;" vertex="1" parent="v66dLdxhp5NwMRdZ7sNX-23">
          <mxGeometry y="90" width="160" height="8" as="geometry" />
        </mxCell>
        <mxCell id="v66dLdxhp5NwMRdZ7sNX-26" value="+isi()&#xa;+update()" style="text;strokeColor=none;fillColor=none;align=left;verticalAlign=top;spacingLeft=4;spacingRight=4;overflow=hidden;rotatable=0;points=[[0,0.5],[1,0.5]];portConstraint=eastwest;" vertex="1" parent="v66dLdxhp5NwMRdZ7sNX-23">
          <mxGeometry y="98" width="160" height="40" as="geometry" />
        </mxCell>
        <mxCell id="v66dLdxhp5NwMRdZ7sNX-27" value="PermintaanResep" style="swimlane;fontStyle=1;align=center;verticalAlign=top;childLayout=stackLayout;horizontal=1;startSize=26;horizontalStack=0;resizeParent=1;resizeParentMax=0;resizeLast=0;collapsible=1;marginBottom=0;" vertex="1" parent="1">
          <mxGeometry x="140" y="520" width="160" height="124" as="geometry" />
        </mxCell>
        <mxCell id="v66dLdxhp5NwMRdZ7sNX-28" value="-orderID : string&#xa;-namaPasien : string&#xa;-namaDokter : string&#xa;-status : string&#xa;" style="text;strokeColor=none;fillColor=none;align=left;verticalAlign=top;spacingLeft=4;spacingRight=4;overflow=hidden;rotatable=0;points=[[0,0.5],[1,0.5]];portConstraint=eastwest;" vertex="1" parent="v66dLdxhp5NwMRdZ7sNX-27">
          <mxGeometry y="26" width="160" height="64" as="geometry" />
        </mxCell>
        <mxCell id="v66dLdxhp5NwMRdZ7sNX-29" value="" style="line;strokeWidth=1;fillColor=none;align=left;verticalAlign=middle;spacingTop=-1;spacingLeft=3;spacingRight=3;rotatable=0;labelPosition=right;points=[];portConstraint=eastwest;" vertex="1" parent="v66dLdxhp5NwMRdZ7sNX-27">
          <mxGeometry y="90" width="160" height="8" as="geometry" />
        </mxCell>
        <mxCell id="v66dLdxhp5NwMRdZ7sNX-30" value="+melakukanPermintaan()" style="text;strokeColor=none;fillColor=none;align=left;verticalAlign=top;spacingLeft=4;spacingRight=4;overflow=hidden;rotatable=0;points=[[0,0.5],[1,0.5]];portConstraint=eastwest;" vertex="1" parent="v66dLdxhp5NwMRdZ7sNX-27">
          <mxGeometry y="98" width="160" height="26" as="geometry" />
        </mxCell>
        <mxCell id="v66dLdxhp5NwMRdZ7sNX-31" value="" style="endArrow=diamondThin;endFill=1;endSize=24;html=1;entryX=0.479;entryY=1.012;entryDx=0;entryDy=0;entryPerimeter=0;exitX=0.48;exitY=0.001;exitDx=0;exitDy=0;exitPerimeter=0;" edge="1" parent="1" source="v66dLdxhp5NwMRdZ7sNX-27" target="v66dLdxhp5NwMRdZ7sNX-12">
          <mxGeometry width="160" relative="1" as="geometry">
            <mxPoint x="250" y="490" as="sourcePoint" />
            <mxPoint x="410" y="490" as="targetPoint" />
          </mxGeometry>
        </mxCell>
        <mxCell id="v66dLdxhp5NwMRdZ7sNX-32" value="" style="endArrow=diamondThin;endFill=1;endSize=24;html=1;exitX=0.75;exitY=0;exitDx=0;exitDy=0;entryX=0.581;entryY=1;entryDx=0;entryDy=0;entryPerimeter=0;" edge="1" parent="1" source="v66dLdxhp5NwMRdZ7sNX-27" target="v66dLdxhp5NwMRdZ7sNX-16">
          <mxGeometry width="160" relative="1" as="geometry">
            <mxPoint x="210" y="390" as="sourcePoint" />
            <mxPoint x="370" y="390" as="targetPoint" />
            <Array as="points">
              <mxPoint x="260" y="490" />
              <mxPoint x="543" y="490" />
            </Array>
          </mxGeometry>
        </mxCell>
      </root>
    </mxGraphModel>
  </diagram>
</mxfile>
